<svg xmlns="http://www.w3.org/2000/svg" xmlns:xlink="http://www.w3.org/1999/xlink" width="149" height="48" viewBox="0 0 149 48">
    <defs>
        <path id="m33ve1z6sa" d="M0.015 0.055L39.532 0.055 39.532 39.665 0.015 39.665z"/>
        <path id="slq9bhftdc" d="M0.105 0.105L19.514 0.105 19.514 10.391 0.105 10.391z"/>
    </defs>
    <g fill="none" fill-rule="evenodd">
        <g>
            <g>
                <g transform="translate(-44 -27) translate(44 27)">
                    <mask id="znm043f8bb" fill="#fff">
                        <use xlink:href="#m33ve1z6sa"/>
                    </mask>
                    <path fill="#FFFFFE" d="M35.567.055c-2.193 0-3.965 1.777-3.965 3.973 0 2.188 1.772 3.963 3.965 3.963 2.188 0 3.965-1.775 3.965-3.963 0-2.196-1.777-3.973-3.965-3.973M26.869 16.745l4.955-6.523c.253-.333.274-.789.053-1.144L29.772 5.7c-.186-.298-.512-.478-.863-.475l-9.083.063-4.98-.003c-.39 0-.564.49-.26.734l1.395 1.126c.196.158.429.265.677.312l8.65 1.63-10.7 11.5-14.084 2c-.487.069-.696.658-.36 1.019L1.54 25.08c.272.292.655.455 1.054.449l13.596-.224c.503-.008.995-.15 1.426-.412l3.257-1.984 6.875 5.457c.271.215.448.526.495.869l1.308 9.636c.062.454.45.793.909.793h.7c.504 0 .914-.408.916-.913l.04-10.694c.002-.552-.174-1.09-.503-1.532l-5.999-8.086 1.255-1.695" mask="url(#znm043f8bb)"/>
                </g>
                <path fill="#FFFFFE" d="M61.599 14.175c0-1.968-1.539-3.185-3.542-3.185h-5.368v6.441h5.368c2.003 0 3.542-1.217 3.542-3.256zm-.501 16.209l-4.687-8.48h-3.722v8.48h-5.08V6.518h11.163c4.974 0 8.051 3.256 8.051 7.692 0 4.187-2.684 6.477-5.26 7.085l5.403 9.089h-5.868zM70.615 30.384L70.615 6.518 87.504 6.518 87.504 10.99 75.696 10.99 75.696 16 87.253 16 87.253 20.472 75.696 20.472 75.696 25.911 87.504 25.911 87.504 30.384 70.615 30.384M105.465 14.21c0-2.003-1.539-3.22-3.542-3.22h-5.368v6.405h5.368c2.003 0 3.542-1.217 3.542-3.185zm-13.99 16.174V6.518h11.163c5.188 0 8.015 3.506 8.015 7.692 0 4.151-2.862 7.658-8.015 7.658h-6.083v8.516h-5.08zM113.622 30.384L113.622 6.518 118.739 6.518 118.739 25.911 128.829 25.911 128.829 30.384 113.622 30.384M134.375 30.384L134.375 20.615 125.215 6.518 131.012 6.518 136.915 16.071 142.819 6.518 148.58 6.518 139.456 20.615 139.456 30.384 134.375 30.384M46.962 44.869l.984-1.357c.67.73 1.759 1.387 3.145 1.387 1.431 0 1.983-.701 1.983-1.372 0-2.087-5.784-.79-5.784-4.442 0-1.655 1.43-2.922 3.622-2.922 1.536 0 2.803.507 3.712 1.401l-.984 1.297c-.79-.79-1.848-1.147-2.892-1.147-1.013 0-1.67.506-1.67 1.237 0 1.863 5.785.715 5.785 4.412 0 1.655-1.178 3.086-3.846 3.086-1.834 0-3.16-.656-4.055-1.58" transform="translate(-44 -27) translate(44 27)"/>
                <g transform="translate(-44 -27) translate(44 27) translate(55.176 36.058)">
                    <mask id="xa2tfogjid" fill="#fff">
                        <use xlink:href="#slq9bhftdc"/>
                    </mask>
                    <path fill="#FFFFFE" d="M5.098 2.013L3.31 6.753h3.578l-1.79-4.74zm3.012 8.2l-.73-1.924H2.817l-.73 1.923H.104L4.01.27h2.177l3.905 9.943H8.11zM10.212 5.248c0-3.13 2.326-5.143 5.218-5.143 1.938 0 3.205.924 3.995 2.057l-1.416.82c-.537-.745-1.476-1.326-2.58-1.326-1.967 0-3.428 1.49-3.428 3.592 0 2.072 1.461 3.593 3.429 3.593 1.013 0 1.908-.462 2.355-.895V6.411h-2.981V4.875h4.71v3.712c-.969 1.088-2.37 1.819-4.084 1.819-2.892 0-5.218-2.042-5.218-5.158" mask="url(#xa2tfogjid)"/>
                </g>
                <path fill="#FFFFFE" d="M76.51 46.27L76.51 36.327 83.322 36.327 83.322 37.863 78.254 37.863 78.254 40.426 83.218 40.426 83.218 41.962 78.254 41.962 78.254 44.735 83.322 44.735 83.322 46.27 76.51 46.27M90.94 39.443c0-.954-.7-1.58-1.684-1.58h-2.4v3.145h2.4c.983 0 1.684-.626 1.684-1.565zm-5.828 6.827v-9.943h4.382c2.087 0 3.235 1.416 3.235 3.116 0 1.684-1.163 3.1-3.235 3.1h-2.638v3.727h-1.744zM97.038 38.071l-1.79 4.74h3.579l-1.79-4.74zm3.01 8.2l-.73-1.924h-4.561l-.73 1.923h-1.983l3.906-9.943h2.176l3.906 9.943h-1.983zM104.507 46.27L104.507 37.863 101.496 37.863 101.496 36.327 109.262 36.327 109.262 37.863 106.251 37.863 106.251 46.27 104.507 46.27M117.655 46.27L117.655 41.917 112.483 41.917 112.483 46.27 110.738 46.27 110.738 36.327 112.483 36.327 112.483 40.382 117.655 40.382 117.655 36.327 119.399 36.327 119.399 46.27 117.655 46.27" transform="translate(-44 -27) translate(44 27)"/>
            </g>
        </g>
    </g>
</svg>
